
<svg version="1.1" id="Capa_1" xmlns="http://www.w3.org/2000/svg" xmlns:xlink="http://www.w3.org/1999/xlink" x="0px" y="0px"
	 width = "160" height = "160" viewBox="0 0 92.833 92.833" style="enable-background:new 0 0 92.833 92.833;"
	 xml:space="preserve">
<g>
	<g>
		<linearGradient id="linear-gradient" x1="399" y1="723.781" x2="399" y2="26.5" gradientUnits="userSpaceOnUse">
              <stop offset="0" stop-color="#bc6074"/>
              <stop offset="1" stop-color="#55367d"/>
            </linearGradient>
		<path fill="url(#linear-gradient)" d="M89.834,1.75H3c-1.654,0-3,1.346-3,3v13.334c0,1.654,1.346,3,3,3h86.833c1.653,0,3-1.346,3-3V4.75
			C92.834,3.096,91.488,1.75,89.834,1.75z"/>
		<path fill="url(#linear-gradient)" d="M89.834,36.75H3c-1.654,0-3,1.346-3,3v13.334c0,1.654,1.346,3,3,3h86.833c1.653,0,3-1.346,3-3V39.75
			C92.834,38.096,91.488,36.75,89.834,36.75z"/>
		<path fill="url(#linear-gradient)" d="M89.834,71.75H3c-1.654,0-3,1.346-3,3v13.334c0,1.654,1.346,3,3,3h86.833c1.653,0,3-1.346,3-3V74.75
			C92.834,73.095,91.488,71.75,89.834,71.75z"/>
	</g>
</g>
</svg>
